<svg width="20" height="20" viewBox="0 0 20 20" fill="none" xmlns="http://www.w3.org/2000/svg">
<path d="M16.875 3.75006H13.75V3.12506C13.75 2.62778 13.5525 2.15087 13.2008 1.79924C12.8492 1.44761 12.3723 1.25006 11.875 1.25006H8.125C7.62772 1.25006 7.15081 1.44761 6.79917 1.79924C6.44754 2.15087 6.25 2.62778 6.25 3.12506V3.75006H3.125C2.95924 3.75006 2.80027 3.81591 2.68306 3.93312C2.56585 4.05033 2.5 4.2093 2.5 4.37506C2.5 4.54082 2.56585 4.69979 2.68306 4.817C2.80027 4.93421 2.95924 5.00006 3.125 5.00006H3.75V16.2501C3.75 16.5816 3.8817 16.8995 4.11612 17.1339C4.35054 17.3684 4.66848 17.5001 5 17.5001H15C15.3315 17.5001 15.6495 17.3684 15.8839 17.1339C16.1183 16.8995 16.25 16.5816 16.25 16.2501V5.00006H16.875C17.0408 5.00006 17.1997 4.93421 17.3169 4.817C17.4342 4.69979 17.5 4.54082 17.5 4.37506C17.5 4.2093 17.4342 4.05033 17.3169 3.93312C17.1997 3.81591 17.0408 3.75006 16.875 3.75006ZM8.75 13.1251C8.75 13.2908 8.68415 13.4498 8.56694 13.567C8.44973 13.6842 8.29076 13.7501 8.125 13.7501C7.95924 13.7501 7.80027 13.6842 7.68306 13.567C7.56585 13.4498 7.5 13.2908 7.5 13.1251V8.12506C7.5 7.9593 7.56585 7.80033 7.68306 7.68312C7.80027 7.56591 7.95924 7.50006 8.125 7.50006C8.29076 7.50006 8.44973 7.56591 8.56694 7.68312C8.68415 7.80033 8.75 7.9593 8.75 8.12506V13.1251ZM12.5 13.1251C12.5 13.2908 12.4342 13.4498 12.3169 13.567C12.1997 13.6842 12.0408 13.7501 11.875 13.7501C11.7092 13.7501 11.5503 13.6842 11.4331 13.567C11.3158 13.4498 11.25 13.2908 11.25 13.1251V8.12506C11.25 7.9593 11.3158 7.80033 11.4331 7.68312C11.5503 7.56591 11.7092 7.50006 11.875 7.50006C12.0408 7.50006 12.1997 7.56591 12.3169 7.68312C12.4342 7.80033 12.5 7.9593 12.5 8.12506V13.1251ZM12.5 3.75006H7.5V3.12506C7.5 2.9593 7.56585 2.80033 7.68306 2.68312C7.80027 2.56591 7.95924 2.50006 8.125 2.50006H11.875C12.0408 2.50006 12.1997 2.56591 12.3169 2.68312C12.4342 2.80033 12.5 2.9593 12.5 3.12506V3.75006Z" fill="red"/>
</svg>
